<svg xmlns="http://www.w3.org/2000/svg" aria-hidden="true" style="width:0;height:0;position:absolute;overflow:hidden"><defs><symbol id="icon-arrow" viewBox="0 0 32 32"><path d="M10.586 3.272a2 2 0 0 0 0 2.828l9.9 9.9-9.9 9.9a1.998 1.998 0 0 0 .025 2.804 2.001 2.001 0 0 0 2.804.025l11.314-11.314a2 2 0 0 0 0-2.828L13.415 3.273a2 2 0 0 0-2.828 0z"/></symbol><symbol id="close-icon" viewBox="0 0 32 32"><path d="M18.088 16 30.37 3.719a1.481 1.481 0 0 0-2.089-2.089L16 13.911 3.719 1.615a1.487 1.487 0 1 0-2.104 2.104L13.911 16 1.615 28.281a1.484 1.484 0 0 0 .423 2.505 1.472 1.472 0 0 0 1.186-.046c.184-.089.347-.215.48-.37L16 18.088 28.281 30.37a1.481 1.481 0 0 0 2.089-2.089L18.088 16z"/></symbol></defs></svg>